<svg id="分離模式" xmlns="http://www.w3.org/2000/svg" viewBox="0 0 92.54 92.52"><defs><style>.cls-1{fill:#8fc31f;}.cls-2{fill:#fff;}</style></defs><ellipse class="cls-1" cx="46.27" cy="46.26" rx="44.7" ry="44.04"/><path class="cls-2" d="M52.46,20.6s-.58,0-1.47,0c-3.15,0-10.71.53-15.42,5.28-5,4.94-5.33,13-5.29,15.87V72h4.45V42.64c3.68-.35,8.88-1.51,12.48-5.11C53.35,31.4,52.46,20.6,52.46,20.6ZM44.1,34.38c-2.49,2.49-6.35,3.42-9.15,3.77.35-3.06,1.38-6.8,3.73-9.15s6.36-3.42,9.2-3.78C47.48,28.24,46.46,32,44.1,34.38Z"/><path class="cls-2" d="M28.47,42.71a15.21,15.21,0,0,1-1.68.08c-2.59,0-7.56-.45-10.7-3.59-4.38-4.38-3.51-12.37-3.51-12.37a15.53,15.53,0,0,1,1.69-.08c2.58,0,7.56.45,10.69,3.59C29.35,34.72,28.47,42.71,28.47,42.71Z"/><path class="cls-2" d="M37,72V67.79H66.14a11.14,11.14,0,0,0,3.68-.58,8.55,8.55,0,0,0,2.92-1.69,7.62,7.62,0,0,0,2-2.81,11.09,11.09,0,0,0,0-7.81,7.74,7.74,0,0,0-2-2.82,8.09,8.09,0,0,0-2.92-1.69,11.41,11.41,0,0,0-3.68-.56H37V45.65H66.26a15.16,15.16,0,0,1,7.19,1.64,11.94,11.94,0,0,1,4.84,4.58A13.42,13.42,0,0,1,80,58.81a13.38,13.38,0,0,1-1.74,6.93,12,12,0,0,1-4.84,4.59A15.16,15.16,0,0,1,66.26,72Z"/><rect class="cls-2" x="37.03" y="62.65" width="18.74" height="3.6"/><rect class="cls-2" x="37.03" y="57.76" width="14.99" height="3.19"/><rect class="cls-2" x="37.03" y="52.88" width="11.24" height="2.79"/></svg>