<svg id="分離模式" xmlns="http://www.w3.org/2000/svg" viewBox="0 0 161 151.61"><defs><style>.cls-1,.cls-2{fill:none;stroke-miterlimit:10;stroke-width:0.25px;}.cls-1{stroke:#9b8c80;}.cls-2{stroke:#b3cc47;}.cls-3{fill:#c8c1ab;}</style></defs><path class="cls-1" d="M62.16,126.83v-8.28H120a22.16,22.16,0,0,0,7.29-1.15,16.82,16.82,0,0,0,5.81-3.36,15.14,15.14,0,0,0,3.87-5.56,22.06,22.06,0,0,0,0-15.52,15.55,15.55,0,0,0-3.87-5.6A16.21,16.21,0,0,0,127.25,84,23,23,0,0,0,120,82.89H62.16V74.6h58a30.13,30.13,0,0,1,14.27,3.25,23.75,23.75,0,0,1,9.61,9.1,26.57,26.57,0,0,1,3.46,13.77,26.57,26.57,0,0,1-3.46,13.77,23.82,23.82,0,0,1-9.61,9.1,30.13,30.13,0,0,1-14.27,3.24Z"/><path class="cls-2" d="M92.79,24.86s-1.15-.08-2.91-.08c-6.27,0-21.27,1.06-30.62,10.5-9.88,9.79-10.59,25.85-10.5,31.5v60.05h8.82V68.63c7.33-.71,17.65-3,24.8-10.15C94.55,46.31,92.79,24.86,92.79,24.86ZM76.2,52.22C71.26,57.16,63.58,59,58,59.72c.7-6.09,2.73-13.5,7.41-18.18C70.38,36.6,78.05,34.75,83.7,34,82.91,40,80.88,47.45,76.2,52.22Z"/><path class="cls-2" d="M45.16,68.75a30,30,0,0,1-3.34.16c-5.14,0-15-.89-21.24-7.13-8.69-8.69-7-24.56-7-24.56A32.67,32.67,0,0,1,17,37.07c5.12,0,15,.89,21.22,7.12C46.91,52.89,45.16,68.75,45.16,68.75Z"/><rect class="cls-3" x="62.16" y="108.34" width="37.2" height="7.15"/><rect class="cls-3" x="62.16" y="98.65" width="29.76" height="6.34"/><rect class="cls-3" x="62.16" y="88.95" width="22.32" height="5.53"/></svg>