<svg xmlns="http://www.w3.org/2000/svg" viewBox="0 0 77.22 71.94"><defs><style>.cls-1{fill:#9b8c80;}.cls-2{fill:none;stroke:#b4cd46;stroke-miterlimit:10;stroke-width:0.25px;}.cls-3{fill:#c9c2ac;}</style></defs><g id="分離模式"><path class="cls-1" d="M29.37,61.67V57.5H58.49a11.12,11.12,0,0,0,3.67-.58,8.45,8.45,0,0,0,2.92-1.69,7.76,7.76,0,0,0,2-2.81,11.24,11.24,0,0,0,0-7.81,7.89,7.89,0,0,0-2-2.82,8,8,0,0,0-2.92-1.69,11.39,11.39,0,0,0-3.67-.57H29.37V35.36H58.6A15.16,15.16,0,0,1,65.79,37a11.94,11.94,0,0,1,4.84,4.58,13.42,13.42,0,0,1,1.74,6.94,13.38,13.38,0,0,1-1.74,6.93A12,12,0,0,1,65.79,60a15.16,15.16,0,0,1-7.19,1.63Z"/><path class="cls-2" d="M44.8,10.31s-.58-.05-1.47-.05c-3.15,0-10.71.54-15.42,5.29-5,4.94-5.33,13-5.29,15.87V61.67h4.45V32.35C30.76,32,36,30.84,39.56,27.24,45.69,21.11,44.8,10.31,44.8,10.31ZM36.44,24.09c-2.48,2.49-6.35,3.42-9.15,3.77.35-3.06,1.38-6.8,3.73-9.15s6.36-3.42,9.2-3.78C39.82,18,38.8,21.69,36.44,24.09Z"/><path class="cls-2" d="M20.81,32.41a15.21,15.21,0,0,1-1.68.08c-2.59,0-7.56-.45-10.7-3.59C4.05,24.52,4.92,16.53,4.92,16.53a15.53,15.53,0,0,1,1.69-.08c2.58,0,7.56.45,10.69,3.59C21.69,24.42,20.81,32.41,20.81,32.41Z"/><rect class="cls-3" x="29.37" y="52.36" width="18.74" height="3.6"/><rect class="cls-3" x="29.37" y="47.47" width="14.99" height="3.19"/><rect class="cls-3" x="29.37" y="42.59" width="11.24" height="2.79"/></g></svg>