<svg id="分離模式" xmlns="http://www.w3.org/2000/svg" xmlns:xlink="http://www.w3.org/1999/xlink" viewBox="0 0 138.3 138.3"><defs><style>.cls-1{fill:none;}.cls-2{clip-path:url(#clip-path);}.cls-3{fill:#fff;}.cls-4{fill:#fefefe;}.cls-5{fill:#2e2e2e;}.cls-6{fill:#363636;}.cls-7{fill:#525252;}.cls-8{fill:#444;}.cls-9{fill:#303030;}.cls-10{fill:#555;}.cls-11{fill:#101010;}.cls-12{fill:#0c0c0c;}.cls-13{fill:#1a1a1a;}.cls-14{fill:#333;}.cls-15{fill:#828282;}.cls-16{fill:#212121;}.cls-17{fill:#636363;}.cls-18{fill:#5e5e5e;}.cls-19{fill:#494949;}.cls-20{fill:#393939;}.cls-21{fill:#c5c5c5;}.cls-22{fill:#5b5b5b;}.cls-23{fill:#4f4f4f;}.cls-24{fill:#989898;}.cls-25{fill:#686868;}.cls-26{fill:#626262;}.cls-27{fill:#dbdbdb;}.cls-28{fill:#2a2a2a;}.cls-29{fill:#414141;}.cls-30{fill:#343434;}.cls-31{fill:#646464;}.cls-32{fill:#292929;}.cls-33{fill:#080808;}.cls-34{fill:#9d9d9d;}.cls-35{fill:#9f9f9f;}.cls-36{fill:#a7a7a7;}.cls-37{fill:#787878;}.cls-38{fill:#bebebe;}.cls-39{fill:#6a6a6a;}.cls-40{fill:#d3d3d3;}.cls-41{fill:#1d1d1d;}.cls-42{fill:#f1f1f1;}.cls-43{fill:#ddd;}.cls-44{fill:#f0f0f0;}.cls-45{fill:#5a5a5a;}.cls-46{fill:#949494;}.cls-47{fill:#757575;}.cls-48{fill:#616161;}.cls-49{fill:#424242;}.cls-50{fill:#3f3f3f;}.cls-51{fill:#bbb;}.cls-52{fill:#9c9c9c;}.cls-53{fill:#c8c8c8;}.cls-54{fill:#bfbfbf;}.cls-55{fill:#fcfcfc;}.cls-56{fill:#c2c2c2;}.cls-57{fill:#0a0a0a;}.cls-58{fill:#121212;}.cls-59{fill:#b9b9b9;}.cls-60{fill:#e9e9e9;}.cls-61{fill:#c3c3c3;}.cls-62{fill:#484848;}.cls-63{fill:#b7b7b7;}.cls-64{fill:#7d7d7d;}.cls-65{fill:#d2d2d2;}.cls-66{fill:#b3b3b3;}.cls-67{fill:#373737;}.cls-68{fill:#6d6d6d;}.cls-69{fill:#8e8e8e;}.cls-70{fill:#7c7c7c;}.cls-71{fill:#fafafa;}.cls-72{fill:#1f1f1f;}.cls-73{fill:#232323;}.cls-74{fill:#4b4b4b;}.cls-75{fill:#d8d8d8;}.cls-76{fill:#b4b4b4;}.cls-77{fill:#fdfdfd;}.cls-78{fill:#868686;}.cls-79{fill:#a5a5a5;}.cls-80{fill:#202020;}.cls-81{fill:#7a7a7a;}.cls-82{fill:#ededed;}.cls-83{fill:#afafaf;}.cls-84{fill:#a8a8a8;}.cls-85{fill:#e2e2e2;}.cls-86{fill:#282828;}.cls-87{fill:#454545;}.cls-88{fill:#8b8b8b;}.cls-89{fill:#dfdfdf;}.cls-90{fill:#191919;}.cls-91{fill:#c9c9c9;}.cls-92{fill:#b1b1b1;}.cls-93{fill:#676767;}.cls-94{fill:#e5e5e5;}.cls-95{fill:#a4a4a4;}.cls-96{fill:silver;}.cls-97{fill:#262626;}.cls-98{fill:#f6f6f6;}.cls-99{fill:#838383;}.cls-100{fill:#8c8c8c;}.cls-101{fill:#d6d6d6;}.cls-102{fill:#b6b6b6;}.cls-103{fill:#eee;}.cls-104{fill:#ccc;}.cls-105{fill:#aaa;}.cls-106{fill:#818181;}.cls-107{fill:#2f2f2f;}.cls-108{fill:#6c6c6c;}.cls-109{fill:#111;}.cls-110{fill:#1c1c1c;}.cls-111{fill:#747474;}.cls-112{fill:#040404;}.cls-113{fill:#0b0b0b;}.cls-114{fill:#7e7e7e;}.cls-115{fill:#383838;}.cls-116{fill:#979797;}.cls-117{fill:#c4c4c4;}.cls-118{fill:#252525;}.cls-119{fill:#2c2c2c;}.cls-120{fill:#515151;}.cls-121{fill:#565656;}</style><clipPath id="clip-path"><circle id="圓形底圖" class="cls-1" cx="69.15" cy="69.15" r="69.15"/></clipPath></defs><g class="cls-2"><rect class="cls-3" y="-9.79" width="138.3" height="164.84"/><path class="cls-4" d="M.05,72.35q0-40,0-80.07C0-9.45.34-9.79,2.06-9.79q55.05.1,110.11,0c1.72,0,2.06.34,2.06,2.07q-.09,80.07,0,160.14c0,1.72-.34,2.06-2.06,2.06q-55.07-.09-110.11,0c-1.72,0-2.07-.34-2.06-2.06Q.11,112.39.05,72.35Z"/><path class="cls-4" d="M16.65,87c-1.17-1.37-.94-2.79-.38-4.37,1.07-3,1.95-6.14,2.94-9.21.37-1.15.84-2.24,2.38-2.07.74,1.62-.62,2.78-.93,4.17-.24,1.06-.67,2.06-1,3.1,2.18-6.73,4.9-13.23,7.71-19.71,1.23-1.26.78-4.2,3.72-3.77-.16-.35-.52-.59-.57-1,.93-2.09,3.09-2.6,4.75-3.74,4.31-2.39,9-3.87,13.57-5.65,1.58-.12,3.1-1.3,4.75-.26.48,1.72-.91,2.75-1.51,4.07-.41.9-.88,1.79-1.28,2.7-1.15,2.91-2.59,5.72-3.18,8.83-.07.68-.93,1.07-.68,1.88a3.62,3.62,0,0,1-.56.84c-1.22,1.34-2,3-3.68,4-1.15.66-.6,2.35-1.15,3.48a1.12,1.12,0,0,1-1.83.29c-.32-1.52-1,.47-1.41-.13-.78-.3-1.05-1-1.37-1.84-.15,2.09.55,4.36-.61,5.93-2.43,3.25-3,7.29-5.1,10.65A5.66,5.66,0,0,1,28.11,88a5,5,0,0,1-2.7-.29,10.81,10.81,0,0,0-6.61,0c-2.16-.39-1.15-1.83-1-3,.3-.49.25-1.11.68-1.87-.47.71-.4,1.31-.7,1.77C17.34,85.38,17.94,86.64,16.65,87Z"/><path d="M85.52,27c2.59.9,5.47,1.58,5.37,5.18,0,1,.51,3.29-2,1.58-.37-.25-.46-.11-1,1.77-.74.2-.91-.45-1.25-.84a14.36,14.36,0,0,0-1.28-1.9c-1.08-1.8-2.32-1-3.56-.22-5.77-.77-11.05-2.57-15.32-7.4a20.67,20.67,0,0,0,1.09,2.43c.86,1.59,1,2.93-.88,4-1.37.78-1.52,2.53-2.42,3.72-1.4,1.87-2.65,3.93-5.39,4a1.41,1.41,0,0,1-.82-.73,1.32,1.32,0,0,1,.13-1.08c2.28-1.49,2.63-3.77,2.36-6.2-.23-2-1.15-3.51-3.49-3.53a2.79,2.79,0,0,1-1.21-1.92c-.35-1.44.8-2.53.92-3.86,1-3.42,3.28-6.18,5.19-9,2.57-3.8,7.13-4.62,11.41-4.37A18.6,18.6,0,0,1,83,11.87c.12.48-.16.71-.54.87a3,3,0,0,1-1.93-.29A15.17,15.17,0,0,0,69.7,12c4.68-1,8.73,1.31,13,1.82,1,.69,1.51-.79,2.41-.49a17.36,17.36,0,0,1,7.07,12.77c-2.83-3.54-5.93-5.25-9.7-5.69a27.42,27.42,0,0,0-6.21,0c.51.88,1.5.7,2.2,1.09l.93.11a5.58,5.58,0,0,0,3.11,1.89,13.68,13.68,0,0,1,5,1.11c.71.3,1.88.58,1.4,1.62s-1.15-.51-1.83-.23c-1.44-.43-2.94,0-4.4-.27A26.3,26.3,0,0,0,85.52,27Z"/><path class="cls-4" d="M97.49,66.33c.62,0,1.27.14,1.41.79q.67,3,1.14,6c.1.63-.45,1-1,1.28.07,3.62.69,7.2.81,10.82a40.45,40.45,0,0,0,.27,4.66c.09,1.56-.22,3.15.24,4.7.2,1.52,1,3.2-1,4.18a11.83,11.83,0,0,0-7.5.28c-2.16.81-2.53.41-2.89-2.12.74-2.38,1-4.71-.66-6.86-.19-.25-.15-.65-.25-1-.77-2.35,1.75-4.64.45-6.76-1.5-2.45.13-4.3.5-6.4a7.17,7.17,0,0,0,.22-.71c0-1.24-.58,0-.82-.22-.55.27-.87-.43-1.37-.29a11.66,11.66,0,0,1-1.45,2.49c-1,.6-1.32,0-1.58-.79-.34-1.54-.48-3.15-1.8-4.27-.83-4.65-1.17-9.39-2.51-13.94-.22-.71-.39-1.44-.61-2.15a14.32,14.32,0,0,0-.88-2.28,6,6,0,0,1-.42-1.72c.31-1.55,1-2.75,2.72-3.07A85.93,85.93,0,0,1,94.83,61.32a1.61,1.61,0,0,1,.5,1.36c.45.2-1.3.67.1.76.86.06.88.82,1.1,1.41A20.63,20.63,0,0,1,97.17,68,1.68,1.68,0,0,1,97.49,66.33Z"/><path d="M83.5,131.76c-6.81,3.88-14.23,4.42-21.79,3.84a43.89,43.89,0,0,1-15.42-3.79c-.67-.51-.9-1.49-1.85-1.68a73.86,73.86,0,0,1-8.09-5.22,3.75,3.75,0,0,1-1.11-1.66,29.91,29.91,0,0,1,0-6.82c.5-1.39.26-2.87.51-4.29,1.13-1.54-.79-2.7-.53-4.13l.53-4.39c-.58-1.76,1-1.48,1.81-1.94,2.34-.72,4.18-.38,5.16,2.2.62,1.62,2.6,2,3.42,3.49a2.33,2.33,0,0,1,.11.74c-.16,2.56-2.17,3.62-4,4.87-1.55,1.11-1.6,2.61-1.07,4.24a23.11,23.11,0,0,0,5,8.31c1.27,1.4,2.68,1,4.16.75,1.89-.45,3.38-1.67,5-2.68a5.61,5.61,0,0,1,2.39-1.22,1.65,1.65,0,0,1,.69.15,2.93,2.93,0,0,1,.82,1.15c.77,2.44,2,4.5,4.48,5.56.9.51,1.9.8,2.8,1.31,1.86,1.41,3.1,1.18,4.58-.86.29-.77,1-1.2,1.45-1.86a2.9,2.9,0,0,1,1.35-1,6.06,6.06,0,0,0,2.12-.87c3.06.1,4.93,2,6.57,4.29C82.77,130.81,83.78,130.9,83.5,131.76Z"/><path class="cls-4" d="M45.85,107.47c-1.89-1.23-3.67-2.51-4.61-4.74-.73-1.71-2.33-.33-3.48-.64a24.5,24.5,0,0,0-3.09.14,10.53,10.53,0,0,0-3.49.3,24.41,24.41,0,0,0-3.17.54c-4,.63-8.06.91-12-.54-.66,0-.87-.44-.88-1,.07-7,3.41-10.27,10.4-10.15,1.54-.3,2,2.07,3.72,1.46,3-.06,6,0,9,0a17.09,17.09,0,0,1,4.22.56c2.24.47,4.31.89,6.46-.6,1.21-.84,2.59,0,3.65.92a17.19,17.19,0,0,1,4.41,6,4.21,4.21,0,0,1,.3,2.35c-.37,1.62-1.88,2-3.06,2.61-1.75,1-3.38,2.26-5.51,2.34a8.49,8.49,0,0,1-2.34-1.62c.37.55,1.38.85,1,1.89C46.9,107.72,46.45,108.23,45.85,107.47Z"/><path class="cls-4" d="M82,130.75c-.69-.26.3-1.37-.82-1.5-.74-.09-2.53.5-1.4-1.5,0-.08-.44-.57-1-.5-1.24.17-2-.73-2.73-1.47-.68-.35-.56-1-.52-1.54.25-.89-.15-1.82.19-2.7a3.65,3.65,0,0,1,3.34-1.92c-1.49,0-3,.55-3.89-1,.79-2.7,5-4.28,8-3,1.2.52,2.33,1.47,3.64.29.77-.65,1.36-1.36.88-2.46a2.9,2.9,0,0,1,.3-1.71,46.07,46.07,0,0,0,3.21-7.47c1.25-2.29,3.39-2.41,5.61-2.34a3.17,3.17,0,0,1,2.06,1c.59.77,1.55,1.37,1.17,2.58l0,2.32c-1,2.12-1.1,4.53-2.11,6.63-1.28,2.64-2.06,5.68-5.37,6.78-.74.24-1.19,1.15-1.82,1.7a4.44,4.44,0,0,0-2,3,8.12,8.12,0,0,1-2.52,4.78C84.87,131.63,83.44,131.14,82,130.75Z"/><path class="cls-4" d="M58.25,37.56l.22,1a4.82,4.82,0,0,1-1.93,4c-1.39,1.19-2.89,1.84-4.71,1,1.71-1,2.5-2.91,4.32-3.92.62-.34-.16-2.83-.74-4.21S54,33,55.05,31.3c.55-.92,0-2.64-.11-3.66-.33-2.47,1-3.89,1.9-5.65l-.4,4a12,12,0,0,1,.14,4.14c-.11,1.71-.28,3.47.84,5A3.51,3.51,0,0,1,58.25,37.56Z"/><path class="cls-5" d="M44.82,129.74c1.6-.1,1,1.39,1.47,2.07a33.67,33.67,0,0,1-11.37-6.18,3.28,3.28,0,0,1-1.56-2.72c.39-5,.65-10,1.82-14.9.62,1.13,2.71,1.81,1.1,3.61-.94,1.29-.49,2.89-1,4.27a34.32,34.32,0,0,1-.37,5,3.85,3.85,0,0,0,1.47,4C39,126.93,41.61,128.84,44.82,129.74Z"/><path class="cls-6" d="M27.81,58.91c-3.18,7.23-6,14.6-8.76,22,.06-3.42,1.83-6.37,2.54-9.6,2-4.31,3.46-8.85,5.73-13C27.83,58.23,28,58.44,27.81,58.91Z"/><path class="cls-7" d="M90.53,122.47c1.1-.81,1.48-2.72,3.49-2.23.27.06.8-.76,1.13-1.23A25.88,25.88,0,0,0,99,109.85c.17-.74-.08-1.78,1.12-1.95-.85,6.5-3.45,12.09-8.52,16.4C89.93,124.48,90.13,123.53,90.53,122.47Z"/><path class="cls-8" d="M34.74,101.6c1,.06,2.13-.37,3,.49-.5.75-2.07.08-2,1.53-.72-.78-1.48-.36-2.29-.14-2.7.77-5.42,1.47-8.14,2.2-.38.11-.83.3-1-.17s.33-.6.57-.88,1.56.36,1.29-.91c.77-1.14,2.21-.55,3-1-.26.32-.65.18-1-.21a5.72,5.72,0,0,1,2.91-.55C32.24,101.8,33.57,102.53,34.74,101.6Z"/><path class="cls-9" d="M95.07,62.77c-1.13-2.61-3.49-4.13-5.46-5.94-2.93-2.68-6.16-5-9.26-7.55a.94.94,0,0,1,.76-.77c4.19,3.69,8.87,6.82,12.61,11A9,9,0,0,1,96,62.76c-.12.34-.34.62-.72.57S94.94,63,95.07,62.77Z"/><path class="cls-10" d="M25.7,91.9a10.64,10.64,0,0,0-7,2c-1.93,1.51-3.72,3.1-3.18,6a4.61,4.61,0,0,1-.37,1.64c-.9-1.33.11-2.92-.6-4.28a1,1,0,0,1-.13-.75c2.5-4.14,6.05-6.32,11-5.87a1,1,0,0,1,.53.56A.82.82,0,0,1,25.7,91.9Z"/><path class="cls-11" d="M28.09,102.48l1.34.26L26.15,104c-2.13,1.12-4.4.79-6.66.68a5.15,5.15,0,0,1-2.85-1.14c-.21-.35-.42-.69-.64-1,.44-.14,1-.52,1.3-.39C20.87,103.51,24.48,102.76,28.09,102.48Z"/><path class="cls-12" d="M90.53,122.47c-.42,1.08.32,1.46,1.09,1.83-.61,2.76-3.19,4-4.61,6.21l-.19-.22c.38-1.91,1.61-3.54,1.54-5.63C88.32,123.54,89.73,123.15,90.53,122.47Z"/><path class="cls-13" d="M81.11,48.51l-.76.77c-.78.89-1.85,1.53-2.26,2.73.15,2-.89,2.59-2.7,2.25a2,2,0,0,1-.62-.95,1.43,1.43,0,0,1,.06-.71c.76-1.1-.37-1.4-.84-2-.32-.39-.76-.82-.49-1.32a1.06,1.06,0,0,1,1.55-.3c1.77,1,3,.27,4.07-1.14a2.22,2.22,0,0,1,1.52-.11,1.15,1.15,0,0,1,.62.49A.52.52,0,0,1,81.11,48.51Z"/><path class="cls-14" d="M49,45.24a104.61,104.61,0,0,0-13.64,5.52c-.56.22-.65-.06-.56-.52,4-2.57,8.6-4,13-5.65a.63.63,0,0,1,.59-.11A1.09,1.09,0,0,1,49,45.24Z"/><path class="cls-15" d="M19.14,104.09l7-.07c.46,1.15-.48.91-1,1.06-.2.06-.76,0-.27.44.1.1.29.11.44.16a11.93,11.93,0,0,1-7.17-.09c-.14-.55.23-.71.65-.82C18.93,104.72,19.22,104.21,19.14,104.09Z"/><path class="cls-16" d="M49,45.24l-.65-.55a2.21,2.21,0,0,1,2.56-.91l.95-.18A5.77,5.77,0,0,0,56.25,42c.46-.18.65.09.78.47a6.26,6.26,0,0,1-1.57,3.22,1.57,1.57,0,0,1-2-1.1C51.85,44.15,50.49,45.27,49,45.24Z"/><path class="cls-17" d="M99.53,85l-1.35-9.81c-.09-.67.23-.89.84-.84a.47.47,0,0,0,.08.47c1.36,2.06.89,4.38,1,6.62L100,84C99.74,84.27,100,84.81,99.53,85Z"/><path class="cls-4" d="M100.08,81.48a28.47,28.47,0,0,1-1-6.62C101.15,76,101.54,78.66,100.08,81.48Z"/><path class="cls-18" d="M78.52,21.44a4.72,4.72,0,0,1-2.91-.38c-.44-.16-1.09-.15-.92-.87a.85.85,0,0,1,1-.58c2.26.52,4.65-.2,6.84.78-1.32,0-2.65-.11-4,0C77,20.58,78.22,21.08,78.52,21.44Z"/><path class="cls-19" d="M87.12,34.54l.84,1c-.91,2.92-1.71,5.89-3.88,8.21a1,1,0,0,1-.75-.79C84.89,40.29,85.57,37.22,87.12,34.54Z"/><path class="cls-20" d="M16.65,87c.68-.72.12-2,1.23-2.55l.12,0c.59.91-.94,2.17.47,3,.42-.17.67,0,.81.4-1,1.47-2.57,2.28-3.9,3.38a.75.75,0,0,1-.73-.64C14.64,88.93,17.09,88.79,16.65,87Z"/><path class="cls-21" d="M85.52,27a11.7,11.7,0,0,1-4.81-1.53,10.25,10.25,0,0,1,6.43.46c-.47,0-.94,0-1.41,0C83.94,26,85.57,26.66,85.52,27Z"/><path class="cls-22" d="M27.81,58.91l-.49-.61c.7-1.46,1.13-3.1,2.66-4,.23-.36.5-.39.8-.1l2.43,2.22c-1.62.15-2.37-2-3.54-.67A18.71,18.71,0,0,0,27.81,58.91Z"/><path class="cls-23" d="M100.68,94.35c-.15,3.27,1.28,6.47.46,9.77a1.09,1.09,0,0,1-.81-.66c-.09-1.34-.63-2.63-.47-4C100.67,97.84,100,96,100.68,94.35Z"/><path class="cls-8" d="M100.68,94.35c-.41,1.87.44,3.86-.51,5.69A1.47,1.47,0,0,1,98.9,99a.8.8,0,0,1,.22-.64c1.68-.82.3-2.46.95-3.56,0-1.28-1-2.68.46-3.78Z"/><path class="cls-24" d="M97.49,66.33c-.09,1.3.77,2.53.26,4.32-1.17-2.08-1.13-4.06-1.62-5.89.18-.16.17-.49.48-.51Z"/><path class="cls-25" d="M30.78,54.19l-.8.1c.84-2.25,2.95-3,4.79-4l.56.52C33.94,52.07,31.75,52.31,30.78,54.19Z"/><path class="cls-26" d="M82.56,23.44c-1.44,0-3.14.49-3.11-1.89C81.19,21,81.59,22.7,82.56,23.44Z"/><path class="cls-27" d="M19.14,104.09l1.07.9c-.73.23-1.55-.06-2.1.6a2,2,0,0,1-1.47-2A3.13,3.13,0,0,1,19.14,104.09Z"/><path class="cls-28" d="M83.38,43.06l.7.69a.41.41,0,0,1-.19.39,3.08,3.08,0,0,1-1.14.58c-1.17.11-2.35.31-3.35-.57C80.19,41.84,81.75,42.3,83.38,43.06Z"/><path class="cls-7" d="M86.82,130.29H87l0,.21c-.72,1.66-2.22,1.15-3.51,1.25-.3-.63-1.33-.17-1.49-1A7.79,7.79,0,0,0,86.82,130.29Z"/><path class="cls-4" d="M50.88,43.78l-2.56.91-.5-.1C48.58,43.33,49.12,41.26,50.88,43.78Z"/><path class="cls-20" d="M14.65,90.48l.52.58c2.08,1.53.72,2.32-.67,3.1-.4-.1-.68-.26-.43-.74C14.07,92.4,13.92,91.36,14.65,90.48Z"/><path class="cls-29" d="M82.38,12.53l.66-.66a3.58,3.58,0,0,1,2.12,1.44c-.87.12-.42,2.69-2.18,1.18C83,13.77,82.28,13.28,82.38,12.53Z"/><path class="cls-23" d="M100.53,91c-.84,1.17-.22,2.53-.46,3.78A13.55,13.55,0,0,1,99.68,90c.45-.65-.17-1.55.5-2.15A5.57,5.57,0,0,1,100.53,91Z"/><path class="cls-30" d="M83,44.15h.89a6.69,6.69,0,0,1-2.63,4.1l-.73-.05C80.41,46.27,82.26,45.55,83,44.15Z"/><path class="cls-31" d="M96.61,64.25l-.48.51c-.85-2.25-1.75.13-3-.09a3.86,3.86,0,0,1,1.9-1.9c.31.37.61.07.92,0A2,2,0,0,1,96.61,64.25Z"/><path class="cls-25" d="M14.07,93.42l.52.57c.79.75.57,1.55.1,2.35l-.17.89C12.83,96.15,13.58,94.77,14.07,93.42Z"/><path class="cls-8" d="M100.18,87.8c-.22.7.15,1.55-.5,2.15L99.53,85,100,84C100.07,85.24,100.13,86.52,100.18,87.8Z"/><path class="cls-32" d="M100.59,103.57l.55.55c-.11.66-.26,1.28-1,1.46-.06-1.06-1.27-1.26-1.57-2.14C99.25,102.86,99.92,103.29,100.59,103.57Z"/><path d="M87.51,116.15c-1.08,1.78-2.34,1.51-3.86.49-2.58-1.72-6.91-.59-8.18,2a1.25,1.25,0,0,1-.28,1.36.81.81,0,0,1-1,.16c-2-1.81-4.4-1.36-6.74-1.2-1.32-.49-1.45-2.16-2.7-2.72A35.22,35.22,0,0,0,59,105.34a2.84,2.84,0,0,1-.13-1c.28-1.14-.35-2.11-.59-3.15,0-1.29-.92-1.3-1.85-1.26A19.62,19.62,0,0,0,52,94c-1.17-1-2.31-1.35-3.75-.2a3.6,3.6,0,0,1-4.36.48c-1.45-.76-3.39-.59-5.12-.84-.83-.51-2,.35-2.71-.64-.16-1.61.66-3.09.55-4.71-.08-1.21-.45-1.57-1.49-.77-1.75,1.2-2.24,3.38-3.71,4.79a1.33,1.33,0,0,1-.68.12,2.92,2.92,0,0,1-1.32-1.06c-.51-1-1.65-1.48-1.93-2.63-.06-.54.35-.77.69-1,3.18-2.33,4.26-5.83,5.15-9.41.2-.79-.11-1.62,1.17-1.78,1.09-.14,1.17-1.29,1.42-2.16a19.28,19.28,0,0,0,.22-7.59c1.83.85,1.07,3.11,2.59,3.86.66,2.22,1.87,4.28,1.91,6.68.76,2.09-.63,3.81-1,5.71a11.44,11.44,0,0,0-.95,3.9,4.68,4.68,0,0,1-.37,1.41,2.67,2.67,0,0,0,.39-1.39,7.76,7.76,0,0,1,.49-2.48,85.82,85.82,0,0,1,3.74-10,2.75,2.75,0,0,1,2.28-.93,3.15,3.15,0,0,1-.58-2.44,5.42,5.42,0,0,1,.18-1.14c.81-2.31.78-4.85,1.92-7.06,1.69-3.77,2.81-7.77,4.59-11.51,1.11-1.5,1.2-3.7,3.15-4.63a1.18,1.18,0,0,1,.79.84,25,25,0,0,1-.9,7.93c-.44,1-2,.07-2.33,1.35a82.63,82.63,0,0,0-3.8,13.6c.33-.89.43-1.5.89-1.92.63-.28.85.16,1.09.58.24.66.55,1.29.75,2-.06,1.14.79,1.45,1.61,1.86,1.68.84,3.63,1,5.24,2a2.86,2.86,0,0,1-.46,3.08c2-1,3.11-2.91,5.26-2.88A7,7,0,0,1,65,74.81a5.24,5.24,0,0,1,.79.15c4,.65,7.85,0,11.74-.5a1.67,1.67,0,0,1,.64.35c.63,2,1.91,1.24,3.14.76a2.2,2.2,0,0,1,2.07,1,3.09,3.09,0,0,1,.29.82,106.78,106.78,0,0,1,.54,16,4.26,4.26,0,0,1-.14.78,45,45,0,0,1-2.57,4.32c.6-.61,1-1.69,2-1.33.68.24.63,1.1.66,1.76.06,1.08,0,2.16.11,3.24,0,2.72.07,5.45,0,8.17.1-3.59.06-7.18.09-10.78,0-1.15,0-2.31,0-3.46s0-2.37,0-3.56c0-1.48,0-3,0-4.43a47.86,47.86,0,0,0-.4-7.37c-.29-1.39-.14-2.87,1.69-3.32a2.73,2.73,0,0,0,.82-.73A8.74,8.74,0,0,1,88,74.87l2.57-2.24c-.81,2.74-1.53,5-2.15,7.3-.22.79-.79,1.82.84,2,.91.11.47.9.3,1.4-1,3-2,5.94.52,8.89,1.07,1.26-.29,2.84-.65,4.26a2.92,2.92,0,0,0,.73,3.36c-.11.89-.82,1.36-1.34,2a3.08,3.08,0,0,0-1,2.64,5.06,5.06,0,0,1-.41.92c-.68,1.1-.22,2.06.36,3,.11,2.13-1.1,4.19-.35,6.35A2.11,2.11,0,0,1,87.51,116.15Z"/><path class="cls-33" d="M41.26,70.33c.06-.74.08-1.48.19-2.21.17-1.16-.32-2.78,1.91-2.49.58.08.86-.88,1.24-1.42.49-.7.62-1.74,1.7-1.94.44,2-.72,3.66-1,5.5-.52,1.65-.94,3.34-1.48,5a6.46,6.46,0,0,1-1,1.54c-.48.49-.63,1.63-1.73.88a4,4,0,0,1-.41-2A4.46,4.46,0,0,1,41.26,70.33Z"/><path class="cls-34" d="M51.87,51.26,47.4,63c-.56-.26-.6-.83-.79-1.31-.57-.84,0-1.12.67-1.31.41-3.12,2.11-5.78,3.11-8.69.27-.43.43-.94,1-1.14C51.78,50.6,52.1,50.72,51.87,51.26Z"/><path class="cls-35" d="M41.2,73.34l0,2.44c.31.6,0,.82-.54.94-.16,0-.45,0-.46-.06-.36-1.59-.58-3.19-1.78-4.49a1.38,1.38,0,0,1,.3-1.8,1.48,1.48,0,0,1,.86-1.22l.25,1.14C40.6,71.18,40.61,72.39,41.2,73.34Z"/><path class="cls-10" d="M28.2,87.45l-.51,1a52.23,52.23,0,0,1-8.56-.63l-.66-.51c2.29-1.26,4.68-1,7-.34A8,8,0,0,0,28.2,87.45Z"/><path class="cls-36" d="M46.61,61.69c.59.24.7.77.79,1.31q-1,3.47-2,6.93c-.77-.56-.45-1.45-.66-2.18l1.61-5.48Z"/><path class="cls-10" d="M51.4,50.76l-.59.92c-.45.12-.7,0-.5-.5l3.12-6.55,1.88,1c.51.69.58,1.27-.35,1.63l-.53-.52c-1.3-.24-1,1-1.4,1.57C52.44,49.09,52.26,50.15,51.4,50.76Z"/><path class="cls-37" d="M50.31,51.18l.5.5q-1.76,4.35-3.53,8.7c-.72-2.06.81-3.58,1.33-5.33A31.56,31.56,0,0,1,50.31,51.18Z"/><path class="cls-38" d="M22.65,78.36c-.73-2,.34-3.24,1.7-4.46.69,1-.65,1.25-.53,2.07.78.29.94-1,1.81-.73a4.28,4.28,0,0,1-1.4,2.17C23.41,77.24,23.63,78.81,22.65,78.36Z"/><path class="cls-39" d="M22.65,78.36c.63-.14.52-1.53,1.58-1l-3.34,5.48C20.83,81.08,21.78,79.74,22.65,78.36Z"/><path class="cls-38" d="M45.72,51.79c-.64-1.39-1.09-2.31.05-3a.75.75,0,0,1,1.08.26C47.38,50.3,45.79,50.43,45.72,51.79Z"/><path class="cls-40" d="M41.2,73.34c-1.76-.44-.73-2.11-1.34-3a1.05,1.05,0,0,0,1.4,0Z"/><path class="cls-41" d="M18,84.39l-.12,0c-.45-1.22.34-2.1.91-3C18.88,82.47,19,83.55,18,84.39Z"/><path class="cls-4" d="M83.38,43.06c-1.32.31-3-.73-3.9,1.09A4.86,4.86,0,0,1,79,48.22c-1,4.23-3.49.91-5.55.85a2.81,2.81,0,0,0,1.67,1.8c1.91.8,1.24,1.42-.15,2a6,6,0,0,1-3-.6c-.3-.16-.55-.17-.23-.06a1.41,1.41,0,0,0,0,.22c.66.87.47,2,.81,2.89-.61,2.49-1.2,2.8-3.68,1.89a31.23,31.23,0,0,1-4-4.2c-1.15-1.68-2.67-3.14-3-5.27.21-2.74-2-2.53-3.66-3-1.39-2.09-.69-3.91.73-5.63,3.41-1.08,5-3.93,6.38-6.87.12-.26.15-.71.46-.79,3.07-.75,1.91-2.51,1.06-4.24a7.65,7.65,0,0,1-1-4c4.25,6,10,7.77,16.15,9,1.32.31,2.68.25,4,.49l1.19,1.89A15.7,15.7,0,0,1,83.38,43.06Z"/><path class="cls-42" d="M58.25,37.56a2.28,2.28,0,0,1-.86-1.88c-1.08-1.78-1.7-3.64-1-5.73,2.29-.25,1.73,1.73,2.27,2.94.07-1.49.21-2.93-1.57-3.51-.81-.73-.61-1.31.25-1.8,1.38-1.14,2.16,0,2.86.86,1.38,1.66,1.36,6.36.12,8.13A2.08,2.08,0,0,1,58.25,37.56Z"/><path class="cls-43" d="M82.38,12.53c-.09.74,2.32.71.6,2-5-.55-9.77-3.4-15.09-1.85C72.72,9.37,77.55,10.19,82.38,12.53Z"/><path class="cls-44" d="M88.63,20.92c-3.92-2.76-7.87-3.41-11.92-3.76-.48,0-1.33.13-1.27-.79,0-.72.72-.55,1.17-.56,3.27-.11,6.52-.06,9.46,1.68A4.68,4.68,0,0,1,88.63,20.92Z"/><path class="cls-45" d="M58.9,39.05a6.19,6.19,0,0,0-.41,5.6c.82,1,1.69,2,1,3.5a.81.81,0,0,1-.73.16c-1.77-1.5-2-3.55-1.93-5.67l-.61-.6c1.36-.74,1.35-2.37,2.22-3.43C58.79,38.58,58.92,38.74,58.9,39.05Z"/><path class="cls-46" d="M57.39,27.58c-.07.53-.9,1.08,0,1.58a.73.73,0,0,1-.5.8c-1.53,2,.48,3.8.45,5.72-2.29-1.67-1.51-4.11-1.51-6.32A21.45,21.45,0,0,1,56.44,26C57,26.35,56.45,27.4,57.39,27.58Z"/><path class="cls-47" d="M85.93,32.65c-1.48,1.07-2.74.25-4-.49.16,0,.42,0,.47-.12C83.4,30.23,84,30.33,85.93,32.65Z"/><path class="cls-48" d="M83,76.46,81,75.86l-.32-.3c-1-3.07-.15-6.3-.9-9.44-.59-2.48-1.4-5-1.17-7.62a1.42,1.42,0,0,1,1.42-.86c1.68,4.72,2.13,9.66,2.48,14.61C83.29,73.59,84.09,74.93,83,76.46Z"/><path class="cls-49" d="M86.57,77.43c-2.47.38-2.26,2.21-1.93,3.88A33.27,33.27,0,0,1,85,88c-.92,1.43-.29,3-.49,4.54-.06.67,0,1.41-.92,1.56-.17-5.73.14-11.48-.59-17.19.39-.44.68-1.14,1.43-.49.18.56.42,1,1,.44C86.08,76.59,86.37,76.92,86.57,77.43Z"/><path class="cls-50" d="M80.07,57.64a1.16,1.16,0,0,1-1.07.6c-.41.28-.11,1-.76,1.13-1.11-1-.77-2.24-1-3.42.1,1.06.21,2.14.36,3.21a1,1,0,0,1-1.1.73c-.76-.57-.63-1.44-.69-2.21a2.64,2.64,0,0,0-1.43-2.35,1.18,1.18,0,0,1-.24-.65,1.1,1.1,0,0,1,1.21-1.07c1.66.75,2.21-.38,2.7-1.6.17.51.34,1,.52,1.54,0,.83-.2,1.75.85,2.19Z"/><path class="cls-39" d="M90,100c-1.34-1-1.4-2.17-.54-3.5-.07,2.7-.09,2.63,2.49,1.71,2.38-.84,4.8-1.35,7.16.14l0,.67C96,98.46,93,99.65,90,100Z"/><path class="cls-51" d="M82.44,53.32a11.79,11.79,0,0,1,3.27,2.19c.4.31.89.6.47,1.17s-.9.38-1.49,0C83.38,56,82.21,55.2,82.44,53.32Z"/><path class="cls-47" d="M84.42,76.41,83,76.9a1.31,1.31,0,0,1,0-.44c-.14-1.4-.27-2.81-.41-4.21C85.05,72.79,83.86,75,84.42,76.41Z"/><path class="cls-52" d="M91,86c.58,2.14.89-.06,1.33-.09.16.72-.19,1.14-2.34,2.77.26-1-.67-2.32,1-2.67Z"/><path class="cls-53" d="M91.06,86c-1-1.29-.24-2.25.77-3.63C92,83.94,91.84,85,91,86Z"/><path class="cls-39" d="M86.57,77.43l-1.1-.58a5.53,5.53,0,0,1,1.65-3.28c.5,1.11-.12,2.17-.15,3.26Z"/><path class="cls-54" d="M87,76.83c-1-1.14.43-2.16.15-3.26.82.06.19,1.16.92,1.3C88.17,75.78,87.34,76.18,87,76.83Z"/><path class="cls-48" d="M79.46,55.74c-1.65.09-1.78-.25-.85-2.19A3.22,3.22,0,0,1,79.46,55.74Z"/><path class="cls-55" d="M58.79,123.76l-.27-1c.57-1.51,1.81-1.1,2.94-1a25.07,25.07,0,0,0,10.69-.59c.89.11,2.1-.13,1.76,1.47-1.23,1.83-1.88,4-3.07,5.83a5,5,0,0,1-1.44,2.22,2.57,2.57,0,0,1-3,.16,8,8,0,0,1-3-1.12,5.3,5.3,0,0,0-.6-1.41,14.11,14.11,0,0,1-2.41-3.14A6.74,6.74,0,0,0,58.79,123.76Z"/><path class="cls-40" d="M50.38,126.86c-2.48,1.34-4,0-5.49-1.83a22.48,22.48,0,0,1-4.57-8.75c-.39-1.61-.26-2.94,1.48-3.65a2,2,0,0,1,1.72.18,1.34,1.34,0,0,1,.62.86,1.3,1.3,0,0,1-.25,1c-1.47.1-1.78.87-1.31,2.18A22.85,22.85,0,0,0,47,124.28c1.16.25,1.39-.54,1.55-1.4.37-.77.6-1.73,1.82-1.26a13.74,13.74,0,0,1,.51,4.18A3.44,3.44,0,0,1,50.38,126.86Z"/><path class="cls-56" d="M50.38,126.86l0-1.19c2.8-2.14,5.67-4.17,8.46-6.31a6.15,6.15,0,0,0,2-2.17,1.82,1.82,0,0,1,2.7-.74c1,.6.07,1.44,0,2.17-1.52,1.91-3.72,2.86-5.76,4C55.4,124.24,53.23,126.15,50.38,126.86Z"/><path class="cls-57" d="M57.76,122.66a20.36,20.36,0,0,1,5.66-4l.33.07c.82.38,1.94-.24,2.58.77a2.58,2.58,0,0,1,.13,2.74,14.47,14.47,0,0,1-5.33.06c-.93-.19-1.87-.4-2.61.48Z"/><path class="cls-58" d="M59.37,104.05l0,1.09c-2.35-1.06-4.14.3-6,1.37-2.14.9-3.82,2.81-6.34,2.87-.61-.2-.87-.73-1.19-1.22l0-.69c.51,0,1,.09,1.43-.4s.54-.77,1.11-.58c.16,0,.37.17.48.11,2.71-1.43,5.77-2.24,8-4.54.69-.3.89.36,1.28.63A4.22,4.22,0,0,1,59.37,104.05Z"/><path class="cls-59" d="M73.42,122.6c.64-1.33-.6-.66-1-.9-.21-.93.67-.89,1.1-1.24a1.82,1.82,0,0,1,.9-.25l.5-.55a1.08,1.08,0,0,1,1.55,0c.65.82-.29,1.3-.58,1.91-.19.87,1.27,1.73,0,2.61-.54,1.08-.9,2.28-2,3l-1.09,1c-.45,0-.63-.24-.74-.61C72.21,125.85,73.53,124.41,73.42,122.6Z"/><path class="cls-52" d="M44.82,129.74c-1.28.86-2.18-.26-3.11-.74a18.44,18.44,0,0,1-5.53-3.72.76.76,0,0,1,.63-.64Z"/><path class="cls-60" d="M45.82,108.16a.86.86,0,0,1,1.06.81c.29.5.93.85.67,1.58a7.47,7.47,0,0,1-4.15,2.56l-1.6-.48C43,111,45.57,110.64,45.82,108.16Z"/><path class="cls-61" d="M58.79,123.76c.91-.1,1.73,0,2,1.08.16,1.65,1.4,2.49,2.55,3.4.85.44.22,1,.08,1.46C61,128.44,59.17,126.65,58.79,123.76Z"/><path class="cls-62" d="M66.39,130.82l3-.54c.62-.33,1.1-1.2,2-.54C72,132,70,131.52,69,131.92S66.65,132.63,66.39,130.82Z"/><path class="cls-63" d="M34.34,121.2l.52-5.47c.61-.42,1-.37.93.47l0,7.49C33.91,123.7,35.35,121.72,34.34,121.2Z"/><path class="cls-64" d="M35.79,116.2l-.93-.47c.38-1.4-.5-3.24,1.42-4.11C36.07,113.14,36.6,114.75,35.79,116.2Z"/><path class="cls-65" d="M34.34,121.2c.55-.28.89-.25.92.5s-.24,1.5.55,2l1,1-.63.64C34.39,124.45,33.94,123,34.34,121.2Z"/><path class="cls-66" d="M71.43,129.74l-2,.54c.53-.59.1-1.61.94-2.06.67-.19,1.18-.82,2-.68l.51.68C72.68,129,71.86,129.19,71.43,129.74Z"/><path class="cls-67" d="M73.94,127.23a9.76,9.76,0,0,1,2-3l.17,1.55C76.15,127.42,75,127.29,73.94,127.23Z"/><path class="cls-68" d="M36.3,92.58c.7.68,1.84,0,2.5.82l-10.11,0c-.08-.37.14-.59.42-.77.57-.24,1.1-.56,1.69-.75a.46.46,0,0,1,.38.08,1.48,1.48,0,0,1,1.66,0c.46.26.92.63,1.45.12C35.05,91.91,35.78,91.85,36.3,92.58Z"/><path class="cls-51" d="M57.86,103.07c-.56-.11-.16-1.17-1-1l-.42-2.17c.48-.29.06-1.47.92-1.19a2.15,2.15,0,0,1,1.44,2.38C58.18,101.6,58.61,102.61,57.86,103.07Z"/><path class="cls-69" d="M50.59,98.42a8.78,8.78,0,0,1,3,3.84C51.62,101.19,51.24,99.7,50.59,98.42Z"/><path class="cls-20" d="M29.28,93l-.59.43c-1.51.5-1.62-1.74-3-1.52a1.77,1.77,0,0,0,0-.46C27.45,90.67,28.78,90.87,29.28,93Z"/><path class="cls-17" d="M34.74,101.6c-1.11,1.61-2.4,1.32-3.74.33A6.15,6.15,0,0,1,34.74,101.6Z"/><path class="cls-70" d="M48.39,106.49l-1.11.58-2.42-3C46.52,104.34,47.24,105.75,48.39,106.49Z"/><path class="cls-71" d="M90,100c2.92-1.35,5.83-2.76,9.09-1l1.07,1c.67,1.11.17,2.36.42,3.53-.72.44-1.37-.2-2.06-.13a1.61,1.61,0,0,0-1.5-.9,5.7,5.7,0,0,0-5.8,1.41,9.08,9.08,0,0,0-2.32,2.14c-.46.55-1,1.37-1.77.94s-.45-1.27-.1-2l.46-.52c.44-1,.65-2,1-3.07Z"/><path class="cls-72" d="M87,105.08c.11.6-.34,1.26.29,1.93,1.19-1.21,2-2.85,3.59-3.54,1,0,1,.49.67,1.17a24,24,0,0,1-3.06,7.49c-1.4-.09-.88-1.11-.87-1.85s.59-1.44,0-2.16C85.12,107.57,86.49,106.24,87,105.08Z"/><path class="cls-66" d="M87.64,108.12c.31.2,1.25-1.51,1.06.43-.11,1.17-1.42,2.35-.17,3.58l-.6,1.51a2.34,2.34,0,0,1-.94,1.58C86.12,112.75,86.82,110.43,87.64,108.12Z"/><path class="cls-73" d="M75.92,121.62c-.67-.48,2-2.64-1-2l.52-1c1.52,1.12,3.14.22,4.9.23C79.2,120.49,76.89,120,75.92,121.62Z"/><path class="cls-74" d="M91.59,104.64c-.09-.47-.1-1-.67-1.17,1.89-1.3,3.83-2.26,6.11-.93C95.05,102.79,92.8,102.36,91.59,104.64Z"/><path class="cls-75" d="M87,115.22c.06-.68-.21-1.55.94-1.58,1.21.68,1.2.73-.42,2.51Z"/><path class="cls-71" d="M19.13,87.85c2.93-.83,5.76-.27,8.56.63.5,1,2.11,1,2.07,2.44.12.89-.59.73-.86.49-1-.91-2.16-.47-3.27-.37a11.1,11.1,0,0,0-10,4.57,4.29,4.29,0,0,1-.94.73L14.59,94c.56-.91,2-1.64.58-2.93A8.6,8.6,0,0,1,19.13,87.85Z"/><path class="cls-76" d="M25.63,91c1.31-2.41,2.75-.13,4.13-.12l1,1c-.11.93-.75,1.1-1.52,1.09a4.07,4.07,0,0,0-3.58-1.55A.79.79,0,0,0,25.63,91Z"/><path class="cls-75" d="M79,48.22c0-1.37-.6-2.82.47-4.07,1.17.28,2.35-.51,3.52,0,.28,2-1.86,2.56-2.47,4Z"/><path class="cls-77" d="M75.39,53.61l-1,1c-.64,1-1.68.32-2.49.6-.42-1-.12-2.3-.93-3.23a31.21,31.21,0,0,1,4,1.11Z"/><path class="cls-78" d="M75,53.11c-1.53.31-2.72-.62-4-1.11-.15-.39-.82-1.39.29-.78s2.57.86,3.68,1.63l.11.11Z"/><path class="cls-4" d="M56.86,42.64c1,1.74.88,3.86,2,5.53,1.81,2.06,2.63,4.76,4.4,6.84,1.29,1.8,2.72,3.5,4.11,5.22a5.31,5.31,0,0,1,1.12,2.44c.36,2.52-.5,4.9-.87,7.34-.15,1.39.24,2.92-1,4a4.43,4.43,0,0,1-2.86.4,4.27,4.27,0,0,1-2.08-1,33.79,33.79,0,0,1-3.12-2.86c-.4-.36-.57-1-1.35-1-.34,1.27,1.86,2.27.46,3.62a3.15,3.15,0,0,1-2.22.11c-1.52-.91-3.46-1-4.74-2.34-.78-.25-.92-.86-.86-1.57a17.64,17.64,0,0,1,.81-5.59c.4-5,4.4-5.64,8.57-6.87-1.57.31-2.51.8-3.53,1-1.74.32-2.16-.19-1.85-2.16L55,47.27c.53-.45.35-1.06.35-1.63C55.89,44.67,55.73,43.33,56.86,42.64Z"/><path class="cls-4" d="M53.33,106.07A8.89,8.89,0,0,0,55,105c1.52-1.46,2.94-1.42,4.35.12a21.1,21.1,0,0,1,5.64,11,2.65,2.65,0,0,1-.24,1.89c-.35.43-.65,1-1.35.66l0-.05c-1-.49.9-1.76-.52-2.06-.79-.17-1.5.11-1.52,1.14-2.13,1.09-3.93,2.69-6.05,3.8-1.59.84-3.2,1.27-4.89.27-1.31-.38-1,1.12-1.68,1.47-1.79-.58-1.24-2.7-2.42-3.68-.7-1.73-2.51-2.9-2.53-5v-1c1.28-1.55,3.23-2.16,4.71-3.43,1.43-1,3.21-1.42,4.33-2.86C52.59,106.69,52.92,106.36,53.33,106.07Z"/><path class="cls-79" d="M49.41,68.39A6.94,6.94,0,0,1,48,71.84,36.72,36.72,0,0,1,51.83,56.2c1.74.66,1.14,2,.64,3a24.37,24.37,0,0,0-1.41,3.91A27.78,27.78,0,0,1,49.41,68.39Z"/><path class="cls-80" d="M50.73,63.18c.44-1.5.89-3,1.32-4.52.23-.84.82-1.72-.22-2.46.22-2.08,1.21-.88,2-.47-.08,1.75.6,2,2.25,1.54,1.36-.41,2.91-2,4.47,0-3.93,1.16-8.6,1-9.33,6.53C50.77,63.83,50.53,63.71,50.73,63.18Z"/><path class="cls-38" d="M85,99.54l-.31,12.83h-.8c-.91-3.52.11-7.15-.3-10.7.38-.7,0-1.52.37-2.22A.82.82,0,0,1,85,99.54Z"/><path class="cls-81" d="M77.42,59.3a6.3,6.3,0,0,1-.31-3.6c1.07,1,.5,2.58,1.27,3.65a11.92,11.92,0,0,1,1.1,6c-.72,3.05,0,6.18-.48,9.25-.18.43-.39.82-.94.84L78,74.85a3.05,3.05,0,0,1-1.09-1.8A18.61,18.61,0,0,1,77,67.94a13.4,13.4,0,0,0,0-6.17A3.21,3.21,0,0,1,77.42,59.3Z"/><path class="cls-82" d="M36.3,92.58l-2.53-.14c-1.14-1.46.5-2.69.35-4.06a5,5,0,0,1,.6-1.45L37,85.49C37.11,88.07,37.58,90.38,36.3,92.58Z"/><path class="cls-66" d="M40.69,76.72a.83.83,0,0,0,.54-.94c.35-.64.69-1.28,1-1.92.7-.36,1.15-.3,1.1.64l-3.61,9.93c-1.21-.25-.6-1.09-.56-1.74Z"/><path class="cls-83" d="M77.25,73.18,78,74.85A32.91,32.91,0,0,1,67.49,76c-.74-.06-1.7.4-2.17-.66.5-1.13,1.55-1.2,2.51-1.14,2.57.15,5-.59,7.57-.74A2.5,2.5,0,0,1,77.25,73.18Z"/><path class="cls-52" d="M50.71,70.93c1.63.45,3.42.49,4.64,1.92,1.26.91,3.46-.34,4.18,1.82-.43,1-1,1.09-1.74.28A25.1,25.1,0,0,1,51,72.59C50.22,72.2,49.33,71.7,50.71,70.93Z"/><path class="cls-84" d="M59,90.53c-1.86,1.18-3.47-.34-5.18-.56-1-.12-.35-1.4-.47-2.13s.89-1.07,1.26-.75c1.35,1.16,3,0,4.39.81C58,88.78,57,89.65,59,90.53Z"/><path class="cls-85" d="M70.94,85.43c.61.73,1.67,1.33.74,2.52-.78,1-1.48.93-2.52.18-.53-.38-1.81.35-1.77-1.12a1,1,0,0,1-.2-1.06C68.28,84.64,69.6,85,70.94,85.43Z"/><path class="cls-18" d="M76.11,73.72c-2,1-4.25.86-6.4,1.11-1.46.17-3-.25-4.39.55l-.22.05-.21-.09c-.37-.48-1-.44-1.45-.8a.46.46,0,0,1-.14-.4c0-.14,0-.21.07-.21l3.05-.07c.58-.21,1.2-.29,1.77-.53,2-.34,4.08-.11,6.1-.44C75,72.77,75.8,72.82,76.11,73.72Z"/><path class="cls-86" d="M84,99.54c-.13.71-.26,1.42-.4,2.13-.08-1.39-.16-2.79-.26-4.48-1.2,1-1.7,2.5-3.36,3.18a17.9,17.9,0,0,1,3.48-5.88c.86.26,1,1,1.06,1.72C84.4,97.33,84.84,98.54,84,99.54Z"/><path class="cls-87" d="M57.79,75c.56.12,1.13.33,1.67-.06a1,1,0,0,1,.67-.24c.81.15,1.74,0,2.33.81-1.75,0-2.48,1.61-3.74,2.37a23.16,23.16,0,0,1-3.11,1.22C56.78,77.42,57.89,76.45,57.79,75Z"/><path class="cls-88" d="M74.45,120.21l-.31.46c-.92.53-1.76,0-2.57-.25a5.89,5.89,0,0,0-3.82-.09c-.78-.39-.81-.94-.36-1.61C70.21,117.36,73.27,118,74.45,120.21Z"/><path class="cls-89" d="M67.39,118.72a1.71,1.71,0,0,0,.49,1.49,1.26,1.26,0,0,1,.08,1.91c-.62.62-1.14.16-1.56-.39l-.61-2.41c-.35-.61-1.09-.9-1.35-1.6.39-.46-.09-1.21.55-1.59C66.88,116,66.59,117.86,67.39,118.72Z"/><path class="cls-90" d="M70.94,85.43c-1.08.76-2.41-.08-3.52.54-.85.26-1.65.85-2.61.41-.48-.18-1-.39-1.43.07l-1-2c.68-.78,1.61-.53,2.45-.63a10.46,10.46,0,0,0,4.09.25c.73-.09,1.45-.28,2,.38Z"/><path class="cls-91" d="M60.24,89.93l-.79-.85a.51.51,0,0,1,0-.73c1.61-.42,3.07.89,4.76.35.52-.17,1.2.62,1.12,1.35a1.57,1.57,0,0,1-1.38,1.52c-.83.11-1.22-.26-1.14-1.14,0-.14-.27-.3-.41-.46C61.68,89.85,61,90.34,60.24,89.93Z"/><path class="cls-92" d="M58.3,83.53l-6-1.66c-.43-.37-.77-.78-.5-1.41a41.65,41.65,0,0,1,6.56,1.89A.82.82,0,0,1,58.3,83.53Z"/><path class="cls-92" d="M71,84.5c-2,0-4,.85-6-.06-.18-.73.21-1.07.85-1.24,1.73,0,3.46,0,5.18,0,.88,0,1.76.18.46,1.14A3.43,3.43,0,0,0,71,84.5Z"/><path class="cls-93" d="M71.4,84.34c.41-.8,0-1-.71-1-1.78.06-3.57.09-5.35.13-.53.25-1,.39-1.49-.17,1-.93,2.21-.21,3.32-.3a36.05,36.05,0,0,1,3.74-.13c1.14,0,2.22-.8,3.54-.14C73.84,84.19,72.58,84.19,71.4,84.34Z"/><path class="cls-94" d="M51.82,80.46c.26.44.61.85.5,1.41-.67,1.47-.36,3.21-1.28,4.56C50,84.52,50.4,81.53,51.82,80.46Z"/><path class="cls-42" d="M63.85,83.34l1.49.17-.43.93-2.53.06-4.08-1,.08-1.18A23.63,23.63,0,0,0,63.85,83.34Z"/><path class="cls-14" d="M74.81,90.26c-.58-2.5-.47-4.28,1-6.37C76.1,86.22,76.18,88,74.81,90.26Z"/><path class="cls-95" d="M34.72,86.93l.08,1.4c-.56,1.41-1.3,2.75-1.83,4.18L31.18,92C32.37,90.3,32.69,88,34.72,86.93Z"/><path class="cls-96" d="M44.69,67.75c.91.52.43,1.46.66,2.18l-.13.91c-.29.54-.09,1.14-.2,1.7-.28,1.49-.92,1.32-1.68.31C43.29,71,44.23,69.45,44.69,67.75Z"/><path class="cls-97" d="M78.77,105.27a7,7,0,0,1,2.81-4.53A6.5,6.5,0,0,1,78.77,105.27Z"/><path class="cls-98" d="M59.44,88.35v.73c0,.54.22,1.16-.5,1.45-.78-.27-2.2.45-2.23-.78A2,2,0,0,1,59,87.9Z"/><path class="cls-49" d="M50.73,63.18l.51.58a30,30,0,0,1-1.39,5.6l-.44-1A15.93,15.93,0,0,1,50.73,63.18Z"/><path class="cls-99" d="M51.4,50.76c.68-1.43,1.32-2.87,2.06-4.26.49-.9.84-.58,1,.25-.85,1.5-1.71,3-2.56,4.51Z"/><path class="cls-100" d="M62.46,75.46c-.9-.21-1.94.2-2.71-.6a1.72,1.72,0,0,1,1.23-1,3.63,3.63,0,0,1,2.35.41c.65.17,1.5,0,1.56,1.06Z"/><path class="cls-101" d="M60.24,89.93c.73-.45,1.46-1.54,2.15,0,.19,1.15-.39,1.58-1.41,1.34C60.36,91.17,59.28,91,60.24,89.93Z"/><path class="cls-102" d="M84.12,92.53C84.38,91,83.06,89.19,85,88c0,1.5,0,3,0,4.5A.58.58,0,0,1,84.12,92.53Z"/><path class="cls-103" d="M84.12,92.53l.89,0A9.26,9.26,0,0,1,85,96a.64.64,0,0,1-1,0l-.59-1.52a.5.5,0,0,0,.14-.4C84.16,93.71,84,93.06,84.12,92.53Z"/><path class="cls-104" d="M78.06,75.41l.5-.52a.56.56,0,0,1,.57-.16A4.69,4.69,0,0,1,81,75.91l0,0A1.79,1.79,0,0,1,78.81,77C78,76.83,77.84,76.16,78.06,75.41Z"/><path class="cls-98" d="M57.86,103.07c.31-.66-.38-1.8.94-2,.2,1,1.12,1.84.57,3A2.09,2.09,0,0,1,57.86,103.07Z"/><path class="cls-105" d="M39.19,82.69c.12.6-.07,1.3.56,1.74l-.56,2.5a.57.57,0,0,1-.92,0A6.7,6.7,0,0,1,39.19,82.69Z"/><path class="cls-61" d="M84,96h1v3.53H84C84,98.36,84,97.19,84,96Z"/><path class="cls-36" d="M43.34,72.85c2.57,1.15.79-1.77,1.88-2a3.64,3.64,0,0,0,0,1.43c.53,1.3.35,1.89-1.2,1.59-.17,0-.43.41-.64.64a1,1,0,0,0-1.1-.64C42.26,73.13,43.16,73.38,43.34,72.85Z"/><path class="cls-21" d="M64.9,86c.84.71,1.67-1.28,2.52,0l0,1c-.84,1.22-1.65.25-2.48,0A.72.72,0,0,1,64.9,86Z"/><path class="cls-38" d="M88.49,101.49c1,1.46-.18,2.2-1,3.07C87.34,103.38,87,102.15,88.49,101.49Z"/><path class="cls-92" d="M64.9,86v1c-1.14,1.66-1.17.1-1.53-.53C63.65,85.52,64,85,64.9,86Z"/><path class="cls-106" d="M38.27,87l.92,0a4.06,4.06,0,0,1-.75,2.19C37.49,88.4,37.94,87.67,38.27,87Z"/><path class="cls-4" d="M59.43,48.16l-.94-3.51c3.15-.56,3.71-.13,3.88,3.07-.85,1,.36,1.43.51,2.15.19.89,1.51,1.39.88,2.58a2.29,2.29,0,0,1-1.81.19C60.43,51.53,59.9,49.87,59.43,48.16Z"/><path class="cls-41" d="M69.66,40.8c2,.07,3.7,1,5.54,1.41.43.08.87.39.48.83-.64.73-1.58,1.71-2.47.9C72.07,42.91,70.38,42.48,69.66,40.8Z"/><path class="cls-9" d="M71.94,55.23c.66-.93,1.72-.15,2.49-.6v.52c-.57,2.06-2.42,3-3.81,4.33a1.23,1.23,0,0,1-1-.34,4.91,4.91,0,0,1-1.37-2c.11-.36.27-.65.72-.44C71.23,57.71,71.72,57.47,71.94,55.23Z"/><path class="cls-70" d="M63.79,52.22c-.77-1.76-2.42-3.14-2.38-5.5l1,1c.5,2,1.94,3.36,3,5-.1.31-.24.58-.61.63A1.23,1.23,0,0,1,63.79,52.22Z"/><path class="cls-48" d="M64.91,53.21l.42-.48,3.67,4-.58.56C66.28,56.74,65.37,55.17,64.91,53.21Z"/><path class="cls-107" d="M56.94,30l.5-.8c1.59-.17,2.06.8,2,2.13,0,1.05-.17,2.09-.26,3.15-1.35-.26-1.66-1-1.35-2.21A1.71,1.71,0,0,0,56.94,30Z"/><path class="cls-108" d="M59.43,48.16c1,1.25,1.24,2.93,2.42,4.06a3,3,0,0,1,1.71,2.43,1,1,0,0,1-.74.66,21.27,21.27,0,0,1-3.94-7.14Z"/><path class="cls-16" d="M81,75.91c-.78-.12-1.69,0-2-1,0-3.18-.13-6.36,0-9.54.28-2-.6-4-.59-6,.09-.43.11-.9.62-1.11C80.05,64.09,81.56,69.88,81,75.91Z"/><path class="cls-77" d="M70.39,59.24l4-4.09c.74-.51,1.48-1,1.63.48s.26,2.75.39,4.13c-.86.76-1.52-.21-2.24-.3a7.84,7.84,0,0,1,3.29,3.14,14.72,14.72,0,0,1,0,5.17c-.28,1.79.21,3.63-.3,5.41l-1.14.54c-1.93-.81-3.79.45-5.73.21-1-.13-2,.16-2.93-.18-.66-1.19.27-2.4,0-3.6a29.67,29.67,0,0,0,.75-7.4A3.31,3.31,0,0,1,70.39,59.24Z"/><path class="cls-73" d="M77,62.27c-1.36-1-2.3-2.69-4.42-2.56,1.43-2.26,2.63.37,3.9,0l1-.46.21,2.45C77.64,62.22,77.46,62.43,77,62.27Z"/><path class="cls-109" d="M66.4,121.73c.38.23.65.85,1.21.45.77-.53.46-1.27.27-2,1.56-1.91,3.19-.6,4.71,0,.52.2.92.64,1.55.45l-1.69,1c-3.73,1-7.48,1.62-11.32.57C62.87,121.89,64.73,122.75,66.4,121.73Z"/><path class="cls-110" d="M72.34,127.54c-.67.16-1,1.48-2,.68,1.29-1.72,1.14-4.23,3-5.62C74.84,124.64,72.72,125.9,72.34,127.54Z"/><path class="cls-111" d="M63.34,128.24c-1.63-.55-2.83-1.42-2.55-3.4Z"/><path class="cls-112" d="M43.81,114.6a24.18,24.18,0,0,1,2.91,4.67c.22,1.13.54,2.23.78,3.35.19.9.75,2-.68,2.58a24.52,24.52,0,0,1-5.14-9.35,1.84,1.84,0,0,1,.52-2C42.94,113.26,43.19,114.46,43.81,114.6Z"/><path class="cls-113" d="M50.44,121.78c2.37.45,4.27-.54,6.19-1.78,1.47-.94,2.71-2.49,4.75-2.29a37.28,37.28,0,0,1-11,8C50.69,124.38,48.86,123,50.44,121.78Z"/><path class="cls-114" d="M46.82,125.2c1.2-1.1.11-2.16-.17-3.14s-.63-1.87.07-2.79c1.38,1,1.06,2.8,2,4C48.65,124.43,48.3,125.38,46.82,125.2Z"/><path class="cls-115" d="M48.8,110.55l-5,3-.4-.44c1-1.27,2.63-1.65,3.88-2.58.33-.26.54-.71,1.06-.65C48.68,110,48.92,110.14,48.8,110.55Z"/><path class="cls-116" d="M64.44,117.72c1.29-.17,1.11.9,1.35,1.6-.77-.29-2.11,1.49-2.39-.64Z"/><path class="cls-38" d="M48.28,110.09l-1,.44-.4-1.56c2.46-.28,4.13-2.31,6.45-2.9,0,.34-.52.69,0,1C52.14,108.92,50.1,109.31,48.28,110.09Z"/><path class="cls-29" d="M33,92.51c-.13-1.72.79-3,1.83-4.18.3,1.53-1.38,2.57-1,4.11C33.54,92.83,33.24,92.55,33,92.51Z"/><path class="cls-9" d="M70.39,59.24l-2,3c-.14.26-.26.25-.36,0l-5.2-6.92.51-.56c1.61.42,2.13,2,3.14,3s2.06,1.51,3.45.92Z"/><path class="cls-117" d="M57.87,72.88c.11-1-.8-1.41-1.07-2.17s-1.55-1.14-.23-2c1-.64,1.51-.08,1.93.76.11.22.25.42.38.63.22,1.15,1.69,2,.93,3.37C59,73.69,58.19,74.08,57.87,72.88Z"/><path class="cls-37" d="M68,62.23a.38.38,0,0,1,.36,0,25.69,25.69,0,0,1-.55,8.06c-.44.15-.65-.09-.78-.47A46.32,46.32,0,0,0,68,62.23Z"/><path class="cls-7" d="M57.87,72.88c.58.49,1.32.34,2,.46a.82.82,0,0,1,1-.11.78.78,0,0,1,0,1l-1.19.61a1.43,1.43,0,0,1-.29,0c-.88-1.68-3-.77-4.11-2Z"/><path class="cls-118" d="M64.35,65.39A1.14,1.14,0,0,1,65.5,66.7a1.06,1.06,0,0,1-1.07,1.15c-.86,0-1.18-.54-1.16-1.3A1.06,1.06,0,0,1,64.35,65.39Z"/><path class="cls-100" d="M61,73.5l-1.09-.16c-.43-1-1.14-2-1-3.2l3,2.75A.8.8,0,0,1,61,73.5Z"/><path class="cls-114" d="M67.05,69.84l.78.47c-.13,1.15-.25,2.29-.38,3.44-.28.62-.67.24-1,.11C67.14,72.6,66.87,71.19,67.05,69.84Z"/><path class="cls-119" d="M61,73.5l.89-.61,1.53,1a2,2,0,0,1,0,.35l-2.39,0C60.94,74,61,73.75,61,73.5Z"/><path class="cls-120" d="M48.28,110.09l5.07-3c.55,0,1.57-.08.36.7-1.57,1-3.27,1.84-4.91,2.75Z"/><path class="cls-63" d="M79,65.32a29.65,29.65,0,0,1,0,9.54,3.11,3.11,0,0,1-.43,0C78.61,71.7,78,68.47,79,65.32Z"/><path class="cls-121" d="M77,62.27l.64-.52a10,10,0,0,1-.07,6C77.28,66,77.56,64.06,77,62.27Z"/><path class="cls-4" d="M69.92,58.72c-1.08,1.69-2.14,1.55-3.3,0-1-1.37-2.19-2.67-3.29-4l-1.48-2.53h1.94l1.12,1a17.11,17.11,0,0,0,3.51,4C68.89,57.76,69.78,57.86,69.92,58.72Z"/></g></svg>