<svg xmlns="http://www.w3.org/2000/svg" viewBox="0 0 138.3 138.3"><defs><style>.cls-1{fill:#fff;}.cls-2{fill:#007773;}.cls-3{fill:#4c9c9a;}.cls-4{fill:#c9dfdf;}.cls-5{fill:#8ebdba;}.cls-6{fill:#e4eeee;}</style></defs><g id="分離模式"><g id="圓形底圖"><circle class="cls-1" cx="69.15" cy="69.15" r="69.15"/></g></g><g id="圖層_1" data-name="圖層 1"><path class="cls-2" d="M31.66,115.39v-5.72a.54.54,0,0,1,.54-.52h6.59v-4a.53.53,0,0,1,.54-.52h1.16a.54.54,0,0,1,.54.52v10.27a.55.55,0,0,1-.54.53H39.33a.54.54,0,0,1-.54-.53v-4H33.9v4a.54.54,0,0,1-.54.53H32.2A.55.55,0,0,1,31.66,115.39Zm0-7.43v-2.84a.54.54,0,0,1,.54-.52h1.16a.53.53,0,0,1,.54.52V108a.54.54,0,0,1-.54.54H32.2A.55.55,0,0,1,31.66,108Z"/><path class="cls-2" d="M42.57,110.23a5.75,5.75,0,0,1,4.74-5.79.77.77,0,0,1,.43.11.64.64,0,0,1,.18.45v1.15a.54.54,0,0,1-.43.53,3.69,3.69,0,0,0,0,7.08.54.54,0,0,1,.43.52v1.16a.56.56,0,0,1-.61.57A5.75,5.75,0,0,1,42.57,110.23Z"/><path class="cls-2" d="M55.77,115.38v-4.74a.55.55,0,0,1,.53-.54h4.53c1.31,0,1.92-.57,1.92-1.66s-.59-1.67-1.92-1.67H56.3a.55.55,0,0,1-.53-.54v-1.09a.54.54,0,0,1,.53-.54h4.63a3.84,3.84,0,1,1,0,7.66H58v3.12a.54.54,0,0,1-.53.54H56.3A.55.55,0,0,1,55.77,115.38Z"/><path class="cls-2" d="M66.2,106.26v-1.12a.54.54,0,0,1,.51-.54h7.56a.53.53,0,0,1,.51.54v1.12a.53.53,0,0,1-.51.53H66.71A.54.54,0,0,1,66.2,106.26Zm0,9.12v-1.13a.54.54,0,0,1,.51-.52h7.56a.53.53,0,0,1,.51.52v1.13a.53.53,0,0,1-.51.54H66.71A.55.55,0,0,1,66.2,115.38Z"/><path class="cls-2" d="M76.63,115.38v-5.57a.53.53,0,0,1,.52-.54h6.73a.53.53,0,0,1,.55.54V111a.54.54,0,0,1-.55.53h-5v3.9a.54.54,0,0,1-.54.54H77.15A.55.55,0,0,1,76.63,115.38Z"/><path class="cls-2" d="M90.4,116a4.82,4.82,0,0,1-3.79-5v-5.83a.52.52,0,0,1,.52-.57h1.18a.55.55,0,0,1,.54.57V111a2.57,2.57,0,0,0,1.79,2.76.51.51,0,0,1,.4.51v1.16a.53.53,0,0,1-.54.55Z"/><path class="cls-2" d="M98.81,115.38V105.14a.54.54,0,0,1,.54-.54h1.16a.54.54,0,0,1,.54.54v10.24a.55.55,0,0,1-.54.54H99.35A.55.55,0,0,1,98.81,115.38Z"/><path class="cls-3" d="M48.88,115.44v-1.16a.54.54,0,0,1,.43-.52,3.69,3.69,0,0,0,0-7.08.52.52,0,0,1-.43-.53V105c0-.37.23-.56.62-.56a5.47,5.47,0,0,1,3.1,1.64,5.66,5.66,0,0,1,1.63,4.15A5.75,5.75,0,0,1,49.5,116,.55.55,0,0,1,48.88,115.44Z"/><path class="cls-3" d="M92,115.44v-1.16a.52.52,0,0,1,.4-.49A2.59,2.59,0,0,0,94.2,111v-5.86a.55.55,0,0,1,.54-.57H95.9a.53.53,0,0,1,.54.57V111a4.82,4.82,0,0,1-3.8,5h-.09A.52.52,0,0,1,92,115.44Z"/><path class="cls-3" d="M31.66,108v-2.84a.54.54,0,0,1,.54-.52h1.16a.53.53,0,0,1,.54.52V108a.54.54,0,0,1-.54.54H32.2A.55.55,0,0,1,31.66,108Z"/><path class="cls-3" d="M66.2,110.83v-1.16a.55.55,0,0,1,.51-.54h6.87a.55.55,0,0,1,.55.54v1.16a.55.55,0,0,1-.55.54H66.71A.55.55,0,0,1,66.2,110.83Z"/><path class="cls-3" d="M76.63,106.25v-1.11a.54.54,0,0,1,.52-.54h7.42a.54.54,0,0,1,.53.54v1.11a.55.55,0,0,1-.53.54H77.15A.55.55,0,0,1,76.63,106.25Z"/><path class="cls-3" d="M102,115.38v-1.11a.54.54,0,0,1,.54-.54h3.56a.54.54,0,0,1,.54.54v1.11a.54.54,0,0,1-.54.54h-3.56A.54.54,0,0,1,102,115.38Z"/><path class="cls-2" d="M66.2,115.38v-1.13a.54.54,0,0,1,.51-.52h7.56a.53.53,0,0,1,.51.52v1.13a.53.53,0,0,1-.51.54H66.71A.55.55,0,0,1,66.2,115.38Z"/><path class="cls-2" d="M31.66,115.39v-5.72a.54.54,0,0,1,.54-.52h6.59v-4a.53.53,0,0,1,.54-.52h1.16a.54.54,0,0,1,.54.52v10.27a.55.55,0,0,1-.54.53H39.33a.54.54,0,0,1-.54-.53v-4H33.9v4a.54.54,0,0,1-.54.53H32.2A.55.55,0,0,1,31.66,115.39Z"/><path class="cls-2" d="M55.77,115.38v-4.74a.55.55,0,0,1,.53-.54h4.53c1.31,0,1.92-.57,1.92-1.66s-.59-1.67-1.92-1.67H56.3a.55.55,0,0,1-.53-.54v-1.09a.54.54,0,0,1,.53-.54h4.63a3.84,3.84,0,1,1,0,7.66H58v3.12a.54.54,0,0,1-.53.54H56.3A.55.55,0,0,1,55.77,115.38Z"/><path class="cls-2" d="M90.4,116a4.82,4.82,0,0,1-3.79-5v-5.83a.52.52,0,0,1,.52-.57h1.18a.55.55,0,0,1,.54.57V111a2.57,2.57,0,0,0,1.79,2.76.51.51,0,0,1,.4.51v1.16a.53.53,0,0,1-.54.55Z"/><path class="cls-2" d="M49.91,126.23a5.52,5.52,0,0,1,4.26-5.71.27.27,0,0,1,.12,0,.58.58,0,0,1,.34.13.51.51,0,0,1,.2.41v1.21a.58.58,0,0,1-.4.52,3.76,3.76,0,0,0,0,6.91.57.57,0,0,1,.4.51v1.22c0,.42-.35.54-.66.54A5.55,5.55,0,0,1,49.91,126.23Zm5.88,5.24v-1.12a.54.54,0,0,1,.44-.55,2.89,2.89,0,0,0,2.18-1.71.55.55,0,0,1,.51-.32h1.23a.54.54,0,0,1,.54.54.57.57,0,0,1,0,.18A5.22,5.22,0,0,1,56.4,132,.54.54,0,0,1,55.79,131.47Z"/><path class="cls-2" d="M62.83,131.39v-5.72a.55.55,0,0,1,.52-.54h1.17a.54.54,0,0,1,.53.54v5.72a.53.53,0,0,1-.53.53H63.35A.55.55,0,0,1,62.83,131.39Z"/><path class="cls-2" d="M70.42,131.38V121.15a.56.56,0,0,1,.56-.56h4.73a.54.54,0,0,1,.53.56v1.1a.54.54,0,0,1-.53.54h-3v8.59a.54.54,0,0,1-.54.54H71A.56.56,0,0,1,70.42,131.38Z"/><path class="cls-2" d="M81.83,131.39V127a.52.52,0,0,1,.11-.29L86,120.81a.52.52,0,0,1,.44-.22h1.39a.57.57,0,0,1,.56.55.58.58,0,0,1-.11.3l-4.2,6.07v3.88a.53.53,0,0,1-.54.53H82.39A.54.54,0,0,1,81.83,131.39Z"/><path class="cls-3" d="M66.86,122.25v-1.1a.54.54,0,0,1,.52-.56h1.56a.55.55,0,0,1,.55.56v1.1a.55.55,0,0,1-.55.54H67.38A.53.53,0,0,1,66.86,122.25Z"/><path class="cls-3" d="M79.58,124.27l-2-2.83a.55.55,0,0,1-.09-.3.53.53,0,0,1,.54-.55h1.4a.58.58,0,0,1,.45.22l2,2.84a.46.46,0,0,1,.1.29.5.5,0,0,1-.07.27.52.52,0,0,1-.47.29H80A.63.63,0,0,1,79.58,124.27Z"/><path class="cls-3" d="M58.41,124.36a2.87,2.87,0,0,0-2.16-1.71.53.53,0,0,1-.46-.54V121a.56.56,0,0,1,.61-.54A5.29,5.29,0,0,1,60.66,124a.57.57,0,0,1,0,.18.54.54,0,0,1-.54.54H58.92A.55.55,0,0,1,58.41,124.36Z"/><path class="cls-2" d="M55.79,131.47v-1.12a.54.54,0,0,1,.44-.55,2.89,2.89,0,0,0,2.18-1.71.55.55,0,0,1,.51-.32h1.23a.54.54,0,0,1,.54.54.57.57,0,0,1,0,.18A5.22,5.22,0,0,1,56.4,132,.54.54,0,0,1,55.79,131.47Z"/><path class="cls-3" d="M62.83,124v-2.84a.55.55,0,0,1,.52-.53h1.17a.53.53,0,0,1,.53.53V124a.54.54,0,0,1-.53.54H63.35A.55.55,0,0,1,62.83,124Z"/><path class="cls-2" d="M49.91,126.23a5.52,5.52,0,0,1,4.26-5.71.27.27,0,0,1,.12,0,.58.58,0,0,1,.34.13.51.51,0,0,1,.2.41v1.21a.58.58,0,0,1-.4.52,3.76,3.76,0,0,0,0,6.91.57.57,0,0,1,.4.51v1.22c0,.42-.35.54-.66.54A5.55,5.55,0,0,1,49.91,126.23Z"/><path class="cls-2" d="M81.83,131.39V127a.52.52,0,0,1,.11-.29L86,120.81a.52.52,0,0,1,.44-.22h1.39a.57.57,0,0,1,.56.55.58.58,0,0,1-.11.3l-4.2,6.07v3.88a.53.53,0,0,1-.54.53H82.39A.54.54,0,0,1,81.83,131.39Z"/><path class="cls-3" d="M35.53,66.45a16.87,16.87,0,0,0,2-2c.82-.86.67-1.57,0-2.07s-.7-.55-.69-1.29a.64.64,0,0,0-.66-.72.72.72,0,0,1-.5-1c.27-.55,1.21-1.44.23-1.82s-1.56-.37-2.38-.68-.83-.3-1.31-1.5a4.92,4.92,0,0,0-2-2.32,9,9,0,0,0-6.5-1.33,8.26,8.26,0,0,0-5.35,3,7.61,7.61,0,0,0-2,4.38c-.22,1.25-.84,6.58,3.48,9.31A10.63,10.63,0,0,0,23.2,69.8c1.28.25,2,.55,5.31-.06S33.19,68,35.53,66.45Z"/><path class="cls-3" d="M71.75,73.59l8.72,7.21a8,8,0,0,1,.71-.52,28.75,28.75,0,0,1,3.91-2.06,29.51,29.51,0,0,0,3.69-1.94c.69-.45,1.39-1,2.06-1.43a34.32,34.32,0,0,1,3.71-2.43,20.68,20.68,0,0,1,7.27-2,21.49,21.49,0,0,0,6.25-1.5c1.49-.69,3-1.51,4.43-2.3a44.21,44.21,0,0,1,7.25-3.45,10.88,10.88,0,0,1,3.62-.49c1.47,0,2.45,0,3.42-1.19a7.87,7.87,0,0,0,.92-1.49A21.56,21.56,0,0,1,129,57.28c1.55-2.44,2.12-3.16,1.76-5.09-.39-1.19-1.56-.31-2,.23a27.59,27.59,0,0,1-6.33,4.95c-4.88,2.61-13,6.18-19.62,7.1-3.32.46-14.26,3.3-14.26,3.3S75.6,71.94,71.75,73.59Z"/><path class="cls-3" d="M85.66,72.14a18.37,18.37,0,0,1-4.09.85,30.8,30.8,0,0,0-4.32.91c-.27.09-.55.2-.82.31L70,64.9c5.81-1.46,11.7-2.83,17.59-3.88,2.15-.39,3.46-.53,5.48-1,4.85-1.11,9.83-2,14.39-3.17,3.74-1,5.44-1.3,7.55-3.2a21.57,21.57,0,0,0,4.24-4.86A9.92,9.92,0,0,1,121,46.38a.8.8,0,0,1,1.21.42,7.42,7.42,0,0,1-.72,3.74A13.19,13.19,0,0,0,120.38,54c-.17,1,.11,2.27-1.28,3.06-.94.55-1.51.16-3.41.6-1,.22-2.4,1-5.62,2.73a43.08,43.08,0,0,1-7.81,3.21C98.55,65,88.74,70.91,85.66,72.14Z"/><path class="cls-4" d="M130.88,62.75c-.83-1-2.66-1-5-1.36A73.69,73.69,0,0,1,73.65,25.85c3.81,7.09,6.28,16.23,7.66,25.54a73.75,73.75,0,0,0,27.51,26.47c2.1,1.15,3.81,1.8,4.25,3s-.86,2.39-2.42,3.46a2.44,2.44,0,0,0,1.26-.39,75,75,0,0,0,17.57-16.68C130.73,65.59,131.71,63.72,130.88,62.75Z"/><path class="cls-5" d="M82,57a119.43,119.43,0,0,1,.1,24.34,73.86,73.86,0,0,0,5,6.45c1.58,1.8,3,3,3,4.27,0,1-1.27,1.76-2.83,2.25a2.27,2.27,0,0,0,.74,0,75.24,75.24,0,0,0,22.21-9.67l.43-.28C105.3,84.59,92.27,72.3,82,57Z"/><path class="cls-5" d="M25.22,80.85c.45-1.19,2.16-1.84,4.26-3A73.72,73.72,0,0,0,57,51.39c1.38-9.31,3.85-18.45,7.66-25.54a73.69,73.69,0,0,1-52.2,35.54c-2.37.37-4.19.4-5,1.36s.14,2.84,1.4,4.49A75.1,75.1,0,0,0,26.38,83.92a2.47,2.47,0,0,0,1.26.39C26.08,83.24,24.81,82,25.22,80.85Z"/><path class="cls-3" d="M48.19,92.06c0-1.27,1.4-2.47,3-4.27a72.1,72.1,0,0,0,5-6.45A118.71,118.71,0,0,1,56.29,57C46,72.3,33,84.59,27.64,84.31l.43.28a75.24,75.24,0,0,0,22.21,9.67,2.34,2.34,0,0,0,.75,0C49.46,93.82,48.18,93.1,48.19,92.06Z"/><path class="cls-4" d="M66.07,39.12A106.43,106.43,0,0,1,56.29,57a118.71,118.71,0,0,0-.1,24.34A73.78,73.78,0,0,0,68,53.54,98.65,98.65,0,0,1,66.07,39.12Z"/><path class="cls-6" d="M64.64,25.85c.31-.53.61-1.06.91-1.59C65.24,24.78,64.94,25.31,64.64,25.85ZM87.13,87.79a73.86,73.86,0,0,1-5-6.45,57.71,57.71,0,0,1-1.18,7.07c-1.11,4.59-2.68,7.48-4.61,7.67a71.75,71.75,0,0,1-7.17.38,75,75,0,0,0,17-1.86c.38-.08.76-.18,1.12-.29,1.56-.49,2.85-1.21,2.83-2.25C90.09,90.79,88.71,89.59,87.13,87.79Zm-18-53.93c-.07-1-.16-1.94-.27-2.92a73.14,73.14,0,0,0-1.44-8.21c-.06-.26-.11-.52-.17-.78l0-.06a1.46,1.46,0,0,1,0-.22A1.77,1.77,0,0,1,67.3,21a1.27,1.27,0,0,1,.18-.37,1.58,1.58,0,0,0-.28.51,1.73,1.73,0,0,0-.07.31v.06c0,.13,0,.26,0,.39A73,73,0,0,1,57,51.39a73.72,73.72,0,0,1-27.5,26.47c-2.1,1.15-3.81,1.8-4.26,3s.86,2.39,2.42,3.46C33,84.59,46,72.3,56.29,57a106.43,106.43,0,0,0,9.78-17.88A98.65,98.65,0,0,0,68,53.54a73.64,73.64,0,0,0,1.19-8.77A73.57,73.57,0,0,0,69.15,33.86Z"/><path class="cls-3" d="M70.34,53.54a73.78,73.78,0,0,0,11.77,27.8A119.43,119.43,0,0,0,82,57a105,105,0,0,1-9.78-17.88A101.46,101.46,0,0,1,70.34,53.54Z"/><path class="cls-2" d="M67.13,21.49v-.06a1.73,1.73,0,0,1,.07-.31.57.57,0,0,1-.08.13s0,0,0,.05c-.5,1-1,2-1.55,3-.3.53-.6,1.06-.91,1.59C60.83,32.94,58.36,42.08,57,51.39a73,73,0,0,0,10.1-29.51C67.09,21.75,67.11,21.62,67.13,21.49Zm45.94,59.36c-.44-1.19-2.15-1.84-4.25-3A73.75,73.75,0,0,1,81.31,51.39c-1.38-9.31-3.85-18.45-7.66-25.54q-.44-.81-.9-1.59c-.41-.75-1.26-2.41-1.68-3.21V8.21a1.92,1.92,0,1,0-3.84,0V21.3a1.53,1.53,0,0,0,0,.37,1.46,1.46,0,0,0,0,.22l0,.06c.06.26.11.52.17.78a73.14,73.14,0,0,1,1.44,8.21c.11,1,.2,1.95.27,2.92a73.57,73.57,0,0,1,0,10.91A73.64,73.64,0,0,1,68,53.54a73.78,73.78,0,0,1-11.77,27.8,72.1,72.1,0,0,1-5,6.45c-1.57,1.8-2.95,3-3,4.27,0,1,1.27,1.76,2.84,2.25.36.11.74.21,1.12.29a75,75,0,0,0,17,1.86,71.75,71.75,0,0,0,7.17-.38c1.93-.19,3.5-3.08,4.61-7.67a57.71,57.71,0,0,0,1.18-7.07,73.78,73.78,0,0,1-11.77-27.8,101.46,101.46,0,0,0,1.89-14.42A105,105,0,0,0,82,57c10.26,15.3,23.29,27.59,28.64,27.31C112.21,83.24,113.49,82,113.07,80.85Z"/></g></svg>